<svg width="200" height="40" viewBox="0 0 200 40" fill="none" xmlns="http://www.w3.org/2000/svg">
<path fill-rule="evenodd" clip-rule="evenodd" d="M0 2.04082V37.9592C0.904977 39.1837 1.80995 39.1837 3.61991 39.1837C4.97738 39.1837 7.23982 39.1837 8.59729 39.1837C11.7647 38.7755 10.8597 37.551 10.8597 31.8367V17.551C10.8597 16.3265 10.8597 14.6939 11.3122 13.4694C12.6697 12.2449 14.9321 10.2041 17.1946 9.38775C20.362 7.7551 23.0769 9.38775 23.9819 11.0204C26.2443 14.2857 25.3394 24.0816 25.7919 28.5714C26.2443 28.1633 34.8416 20.4082 36.1991 19.1837C37.5566 17.9592 35.7466 15.102 37.1041 13.8776C38.0091 12.6531 40.2715 10.6122 41.629 9.79592C46.6063 6.93878 51.1312 9.79592 51.1312 15.5102C51.5837 21.2245 51.5837 30.2041 51.1312 36.7347C51.1312 38.3673 51.5837 38.7755 53.3937 39.1837C55.2036 39.1837 60.6335 39.5918 61.991 38.7755C62.8959 37.9592 62.4434 36.3265 62.4434 35.102V22.449C62.4434 14.6939 63.8009 4.08163 53.8462 0.816326C52.9412 0.408163 51.1312 0.408163 50.2262 0H46.6063L42.9864 1.22449C38.4615 2.44898 35.7466 5.71429 34.8416 6.53061C33.0317 2.04082 27.6018 0 22.1719 0C14.4796 0.408163 10.4072 5.71429 9.50226 6.12245C9.50226 2.04082 9.95475 1.22449 6.78733 0.816326C4.97738 0.816326 0.904977 0.408163 0 2.04082Z" fill="white"/>
<path fill-rule="evenodd" clip-rule="evenodd" d="M179.638 40H185.068C186.426 39.5918 190.95 39.5918 195.475 37.9592C197.285 37.1429 197.738 36.7347 198.19 35.102C198.19 33.4694 198.19 31.0204 197.285 30.2041C194.57 29.7959 189.141 33.0612 180.996 32.2449C175.113 31.4286 172.398 28.1633 172.851 22.449H195.475C199.548 22.449 199.095 21.2245 200 19.5918V15.5102C199.548 14.6939 199.548 14.2857 199.548 13.4694C199.548 13.0612 199.548 12.6531 199.548 11.8367C196.38 0 185.068 0.408163 183.258 0H179.186C177.828 0.816327 175.113 0.408163 171.493 2.04082C157.919 8.57143 159.729 28.1633 165.611 34.2857C168.779 37.551 172.851 39.1837 177.376 39.5918L179.638 40ZM172.851 15.9184H189.141C189.593 10.6122 186.878 6.93878 180.996 6.93878C175.566 7.34694 172.398 11.0204 172.851 15.9184Z" fill="#4B4B4D"/>
<path fill-rule="evenodd" clip-rule="evenodd" d="M138.009 28.9796L129.412 4.48976C128.507 2.44895 128.96 1.22446 126.245 0.816294C124.435 0.816294 121.267 0.40813 119.457 0.816294C116.29 1.22446 117.195 2.85711 117.647 4.89793C119.91 11.4285 122.625 17.9592 124.887 24.4898C126.245 27.7551 127.15 30.6122 128.507 33.8775C128.96 35.5102 129.412 37.9591 130.769 38.3673C132.127 39.1836 135.294 39.1836 137.104 39.1836C145.702 39.1836 144.797 39.1836 146.607 34.6938C148.417 29.3877 157.466 5.30609 157.919 2.85711C157.919 1.63262 157.919 1.22446 156.561 0.816294C155.204 0.816294 151.584 0.816294 149.774 0.816294C147.059 1.22446 147.059 2.04078 146.154 4.0816C143.439 12.653 140.724 20.8163 138.009 28.9796Z" fill="#4B4B4D"/>
<path fill-rule="evenodd" clip-rule="evenodd" d="M85.9728 40H88.6877C89.5927 39.5918 91.4027 39.5918 92.7601 39.1836C96.8325 37.551 98.19 35.9183 100.905 33.8775C101.357 37.551 100.452 38.7755 102.715 39.1836C104.525 39.1836 108.597 39.5918 109.955 38.3673L97.7375 27.7551C96.38 28.5714 92.7601 33.0612 87.7827 30.6122C84.1628 28.9795 84.1628 24.8979 84.1628 20.4081V3.67343C84.1628 2.04077 84.1628 1.63261 83.2579 1.22445C81.4479 0.816284 77.828 0.816284 76.018 0.816284C72.8506 1.22445 73.3031 1.63261 73.3031 4.48975V24.8979C73.3031 28.9795 73.7556 32.653 76.018 35.5102C79.6379 40 84.1628 39.1836 85.9728 40Z" fill="white"/>
<path fill-rule="evenodd" clip-rule="evenodd" d="M110.407 34.2857C110.859 32.2449 110.859 2.449 110.407 1.63267C109.954 0.408181 101.81 0.408181 99.9997 1.22451C99.0947 2.04083 99.5472 4.48981 99.5472 6.12247V22.449C99.5472 25.3061 99.5472 24.4898 101.357 26.1225C102.715 27.347 109.954 33.8776 110.407 34.2857Z" fill="white"/>
<path fill-rule="evenodd" clip-rule="evenodd" d="M25.7919 33.8776C25.7919 38.7755 24.4344 39.1837 31.6742 39.1837C33.9367 39.1837 36.6516 39.1837 36.6516 37.1429V23.2653C35.7466 23.6735 31.6742 27.7551 30.7693 28.5714C29.8643 29.3878 28.9593 30.2041 28.0543 31.0204C27.6018 31.4286 27.1494 31.8367 26.6969 32.2449C26.2444 32.6531 25.7919 33.0612 25.7919 33.8776Z" fill="white"/>
</svg>
